<svg xmlns="http://www.w3.org/2000/svg" xmlns:xlink="http://www.w3.org/1999/xlink" aria-hidden="true" focusable="false" width="1em" height="1em" style="-ms-transform: rotate(360deg); -webkit-transform: rotate(360deg); transform: rotate(360deg);" preserveAspectRatio="xMidYMid meet" viewBox="0 0 16 16"><path fill-rule="evenodd" d="M13 8V6H7V4h6V2l3 3-3 3zM4 2H3v1h1V2zm7 5h1v6c0 .55-.45 1-1 1H6v2l-1.5-1.5L3 16v-2H1c-.55 0-1-.45-1-1V1c0-.55.45-1 1-1h10c.55 0 1 .45 1 1v2h-1V1H2v9h9V7zm0 4H1v2h2v-1h3v1h5v-2zM4 6H3v1h1V6zm0-2H3v1h1V4zM3 9h1V8H3v1z" fill="#626262"/><rect x="0" y="0" width="16" height="16" fill="rgba(0, 0, 0, 0)" /></svg>